inDegrees=no
num_controls=7
num_derivatives=13
num_iterations=198
num_multipliers=7
num_parameters=0
num_slacks=7
num_states=26
objective=5.939075
objective_accelerations=0.768703
objective_balance=0.017118
objective_effort=0.520362
objective_height=4.562450
objective_ligament=0.070442
solver_duration=1713.085170
status=Solve_Succeeded
success=true
DataType=double
version=3
OpenSimVersion=4.4-2022-07-23-0e9fedc
endheader
time	/jointset/ground_pelvis/pelvis_tilt/value	/jointset/ground_pelvis/pelvis_tx/value	/jointset/ground_pelvis/pelvis_ty/value	/jointset/hip_r/hip_flexion_r/value	/jointset/hip_r/hip_adduction_r/value	/jointset/hip_r/hip_rotation_r/value	/jointset/back/lumbar_extension/value	/jointset/patellofemoral_r/patellar_flexion_r/value	/jointset/knee_r/knee_flexion_r/value	/jointset/knee_r/knee_adduction_r/value	/jointset/knee_r/knee_rotation_r/value	/jointset/ankle_r/ankle_angle_r/value	/jointset/subtalar_r/subtalar_angle_r/value	/jointset/ground_pelvis/pelvis_tilt/speed	/jointset/ground_pelvis/pelvis_tx/speed	/jointset/ground_pelvis/pelvis_ty/speed	/jointset/hip_r/hip_flexion_r/speed	/jointset/hip_r/hip_adduction_r/speed	/jointset/hip_r/hip_rotation_r/speed	/jointset/back/lumbar_extension/speed	/jointset/patellofemoral_r/patellar_flexion_r/speed	/jointset/knee_r/knee_flexion_r/speed	/jointset/knee_r/knee_adduction_r/speed	/jointset/knee_r/knee_rotation_r/speed	/jointset/ankle_r/ankle_angle_r/speed	/jointset/subtalar_r/subtalar_angle_r/speed	/forceset/tau_hip_flexion_r	/forceset/tau_hip_adduction_r	/forceset/tau_hip_rotation_r	/forceset/tau_knee_flexion_r	/forceset/tau_ankle_angle_r	/forceset/tau_subtalar_angle_r	/forceset/tau_lumbar_extension	lambda_cid13_p0	lambda_cid14_p0	lambda_cid14_p1	lambda_cid14_p2	lambda_cid14_p3	lambda_cid14_p4	lambda_cid14_p5	/jointset/ground_pelvis/pelvis_tilt/accel	/jointset/ground_pelvis/pelvis_tx/accel	/jointset/ground_pelvis/pelvis_ty/accel	/jointset/hip_r/hip_flexion_r/accel	/jointset/hip_r/hip_adduction_r/accel	/jointset/hip_r/hip_rotation_r/accel	/jointset/back/lumbar_extension/accel	/jointset/patellofemoral_r/patellar_flexion_r/accel	/jointset/knee_r/knee_flexion_r/accel	/jointset/knee_r/knee_adduction_r/accel	/jointset/knee_r/knee_rotation_r/accel	/jointset/ankle_r/ankle_angle_r/accel	/jointset/subtalar_r/subtalar_angle_r/accel	gamma_cid13_p0	gamma_cid14_p0	gamma_cid14_p1	gamma_cid14_p2	gamma_cid14_p3	gamma_cid14_p4	gamma_cid14_p5
0.5	-0.1729887885402973	0.007719623691844097	0.7793901588037636	1.010635688812346	-0.2215268686578253	-0.1196041625822468	-0.6611419543089152	1.043234693930015	1.043234693929947	-0.07643201077485462	0.1745328852741854	0.3031704531850742	0.1441426367010228	-0.4513128353847802	-0.2219309503207417	-0.6136631747994185	2.181230658407665	-0.0482918134311296	0.2406326768076296	-0.7286154183166844	2.164951105877164	2.164951105877258	-0.40931295161699	2.047451669128135e-05	0.5352427187775294	0.1405996598084998	-0.2199661285254224	-5.309938080483414e-05	0.01720083131798147	-0.3046818173703751	0.01675944940826551	0.007469172097846704	0.2557521042293737	-4.572141944408855	-36.457904429857	-2.47321345037361	0.05499653829958889	-7.258064008881031	-639.1911186658303	68.60112183009328	0.5567683554496321	0.7577711204323331	-0.489982688285436	-1.505187340842689	-0.1793559495170066	-0.3526831793193167	2.087474355167954	-1.508992773138659	-1.508992773138662	0.6590352951141535	-0.05207425160160921	-0.7472432981163115	-0.4502892043769512	-5.738024210419864e-08	1.685368054596204e-07	2.351964920522519e-06	8.423672698000078e-07	-3.241099756536409e-07	-1.974686582462617e-07	1.708798408944714e-06
0.51	-0.1774730374137029	0.005538354627180243	0.7732304889386384	1.032369389700453	-0.2220190687287509	-0.1172179314450251	-0.6683233081178943	1.06480530083869	1.06480530083864	-0.08049290407916029	0.1745329251994329	0.3084843540664987	0.1455250268679404	-0.4454595459740167	-0.2143085929485322	-0.6181294463649528	2.165219368755844	-0.05013285001816636	0.2366304187554349	-0.7075777162345446	2.148878346670769	2.148878346670857	-0.4028218771819909	-6.851910357375534e-06	0.52744855296573	0.1358466341164867	-0.2273535745656754	0.0006114247991284408	0.01742048095880111	-0.3105089839230005	0.015939317679677	0.007764134770950626	0.2625379564591818	-3.785689581993075	-37.11363596359901	-2.599252379401483	0.2342351531353324	-7.171917078989638	-645.34799334152	69.09333028329442	0.611244529658537	0.7665433851767961	-0.4037840404928479	-1.692595135655176	-0.1839347419679465	-0.4215647515129092	2.123562221425981	-1.700197140854597	-1.700197140855626	0.6510209933222061	0.02274000655972281	-0.8089008834144756	-0.4921013406739108	-4.261902980133501e-08	1.831958023088041e-07	2.277052148042491e-06	9.207387818827939e-07	-3.267739259832595e-07	-1.795658730304288e-07	1.715905489110702e-06
0.52	-0.1818964263338472	0.003433724204150785	0.7670303894278968	1.05393427862038	-0.2225291706112811	-0.1148712364149938	-0.6752919560887142	1.086206424226009	1.086206424225976	-0.08448751114399024	0.1745328716683974	0.3137176337576646	0.1468590283601258	-0.4391408447325002	-0.2066032219938627	-0.6217491039227035	2.147468264771885	-0.05187217575204054	0.2327254553695055	-0.6860742506848445	2.131054401605786	2.131054401605867	-0.3960557037218153	-2.10454475768481e-06	0.5191184807258213	0.1309219248620568	-0.2347410206059292	0.001275948979062095	0.01764013059962354	-0.3163361504756257	0.01511918595108868	0.008059097444055174	0.2693238086889891	-3.075576273934191	-37.76476830311097	-2.716601755241435	0.4030843125878378	-7.121859437297449	-651.4591318774631	69.60846712397264	0.6498507216002136	0.7743738369243439	-0.3206598867287291	-1.853150207270381	-0.1590137788844731	-0.3332242460662658	2.180627048680055	-1.859229944856313	-1.859229944856313	0.7140551001494345	-0.04565949307198598	-0.854424583738182	-0.4846259168602775	-3.041775969078868e-08	1.950269248252439e-07	2.20228442077383e-06	9.63494026348439e-07	-3.292471953744728e-07	-1.64253871024759e-07	1.725150879258465e-06
0.53	-0.1862544517204545	0.00140649083172957	0.7607983306722426	1.075313240380783	-0.2230561010254498	-0.1125629817832583	-0.6820433464790014	1.107420805090281	1.107420805090237	-0.08841318576195062	0.1745328387603222	0.3188650849614995	0.1481430487296573	-0.432393363878654	-0.1988355838962907	-0.6245188297864529	2.128045985251684	-0.05349612467214744	0.228950037061027	-0.6641462183919307	2.111547584343485	2.111547584343531	-0.3890325766534475	-4.340081178917961e-06	0.5102957801181086	0.1258584878147334	-0.2418728547762017	0.001621655278369366	0.0178024180939573	-0.3224143913980517	0.01439658784332056	0.008419933477091307	0.275851835459604	-2.440849682596026	-38.38192366421427	-2.784752244860691	0.5473646070780633	-7.038852766512193	-657.586991329301	70.26848702034175	0.6978554686354753	0.7790729760405156	-0.2335875651887968	-2.028452265595889	-0.1611864178580139	-0.3960899642011802	2.20753266670279	-2.037530850886959	-2.037530850892264	0.7037075963351357	0.02278259094265586	-0.9076430770782212	-0.5202968648582997	-1.78140427067352e-08	2.068210844525098e-07	2.130261316671554e-06	1.012112789330815e-06	-3.310003445588932e-07	-1.508172028696964e-07	1.738721140213112e-06
0.54	-0.1905428705582516	-0.0005428433237425538	0.7545428829321527	1.096489642257744	-0.2235986911226764	-0.1102917592028009	-0.6885737282769386	1.128431893135136	1.128431893135081	-0.09226717589199601	0.1745328411318355	0.3239220191036992	0.1493758158754775	-0.4252195349704617	-0.1910233786040444	-0.6264269008098325	2.106956288083446	-0.05500411236362202	0.2253190451140462	-0.6418725322147864	2.090395837722382	2.090395837722393	-0.3817188061388916	4.951377194316487e-06	0.5010150683987799	0.1206712801198127	-0.2490046889464756	0.001967361577673285	0.01796470558828752	-0.3284926323204778	0.01367398973555183	0.008780769510121942	0.2823798622302178	-1.88087689606101	-38.99582130682404	-2.844132257823204	0.6808819949490574	-6.991891850675437	-663.6944864800279	70.95157681709513	0.7351203324694247	0.7832872758592228	-0.1483289186547733	-2.1866337368778	-0.1358215331580311	-0.304338973766796	2.249757825526189	-2.188215816616912	-2.188215816616901	0.7721837893870965	-0.04335409411302688	-0.9460268060613872	-0.5093800463797745	-4.76506535199295e-09	2.185743489683493e-07	2.061274816923576e-06	1.067218849395531e-06	-3.319567650038828e-07	-1.394553721663693e-07	1.757076364613676e-06
0.55	-0.1947575540491223	-0.002413917235162171	0.7482726563539146	1.117447072716409	-0.2241556987936859	-0.1080561823169964	-0.694879754819826	1.149223436183455	1.149223436183447	-0.09604685183770112	0.1745328578659786	0.3288839799003518	0.150556261028744	-0.4176529888026762	-0.1831913259717792	-0.6274736728464906	2.084264909558446	-0.0563762068085174	0.2218150417307926	-0.6192934278050239	2.067652854614779	2.067652854614769	-0.3741794296712447	-7.740313621636689e-07	0.4913112403553226	0.1154037973712164	-0.2559136372177441	0.002349226744482614	0.01803964837280007	-0.3346089915491223	0.01287759115853193	0.009043367093390871	0.2886492187398706	-1.395361825416473	-39.64106171642121	-2.954908500880282	0.8262962286630269	-6.832612393523984	-669.7311813232471	71.52665715833872	0.7770791508218671	0.7831094174312059	-0.06116669907649185	-2.35009093966249	-0.1344920311562633	-0.3706723687557159	2.267889032353686	-2.356327627318731	-2.356327627321771	0.7505945554555131	0.02123508058917365	-0.9924834492462558	-0.5370794960080706	7.823459424492984e-09	2.292637285076237e-07	1.992985323906992e-06	1.11619921482306e-06	-3.319897665263184e-07	-1.298262011448461e-07	1.776662251584335e-06
0.5600000000000001	-0.1988946405999375	-0.004206681588154937	0.7419962989847287	1.138169649183953	-0.2247257451353448	-0.1058550937346537	-0.7009588098618853	1.1697797517868	1.169779751786839	-0.09974997802272985	0.1745329007153563	0.3337469178874182	0.1516837019331429	-0.4097001469593405	-0.1753614669186742	-0.627653058999356	2.059985489859389	-0.05761184649345245	0.2184213844214959	-0.5964782320491645	2.043350348727709	2.043350348727679	-0.3664088540035169	1.017435272649304e-05	0.4812105064815306	0.1100704303462794	-0.2628225854890129	0.002731091911294467	0.01811459115731544	-0.3407253507777668	0.01208119258151266	0.009305964676664065	0.2949185752495232	-0.9841797637733198	-40.28435623664927	-3.05793651471775	0.9620158898380369	-6.70818226712742	-675.7669854496064	72.12097144760888	0.8123794675794598	0.7828485600271888	0.02514825810373978	-2.504241971689315	-0.1085305811659568	-0.2822697589754212	2.296976094745604	-2.500120372510171	-2.500120372510171	0.8184236294032802	-0.04001933558402636	-1.025407972128349	-0.5225569016479127	1.985944110707134e-08	2.386764460750201e-07	1.925532238968083e-06	1.157828746685963e-06	-3.309146653416892e-07	-1.222762217414874e-07	1.79772493363911e-06
0.5700000000000001	-0.2029504047902192	-0.005921230291598762	0.7357224710722766	1.158641720503683	-0.2253073821075001	-0.1036873553243118	-0.7068086402977426	1.190085424069679	1.190085424069765	-0.1033744285947877	0.174532916330591	0.3385069917953021	0.1527576616391298	-0.4013958621971769	-0.1675547481001527	-0.6269677593754018	2.034175031917573	-0.05869016202156096	0.2151477829896909	-0.5734661457452234	2.017537687399292	2.017537687399273	-0.3584474054544102	-1.35095630660345e-05	0.4707497244123469	0.1047197294498091	-0.269446610113379	0.003062030218120341	0.01810437182233307	-0.3468788386510063	0.01126124544879915	0.009523674742295924	0.3008792219084695	-0.6473639262101523	-40.93335477557663	-3.179868217054081	1.098931566922992	-6.497228818194853	-681.6663649114399	72.67015728892173	0.8480111192550646	0.7785463319459364	0.1119118307885705	-2.657473183479497	-0.1034498677217038	-0.3467066927719827	2.306581304778012	-2.658807413876926	-2.658807413875322	0.7902880868125477	0.0157994636691917	-1.064633183973379	-0.5411597681633386	3.099650742942746e-08	2.464165179962785e-07	1.856982865093896e-06	1.191746120113003e-06	-3.28464652707122e-07	-1.156372304664513e-07	1.81485804768535e-06
0.58	-0.2069214145051353	-0.007557919249021124	0.7294598343593135	1.178848082148384	-0.2258989958007544	-0.1015517131997846	-0.7124276985892484	1.2101255760591	1.210125576059233	-0.1069182081575254	0.1745325635833032	0.3431608139105623	0.1537781477192488	-0.3927492518862036	-0.1597895177143815	-0.6254148191015554	2.006843554853686	-0.05960719071320662	0.2120021272583285	-0.5503238031788967	1.990246290036096	1.990246290036088	-0.3502746521393766	-6.349814901686845e-05	0.459960147956764	0.09937570517266961	-0.2760706347377451	0.003392968524949681	0.01809415248735186	-0.3530323265242458	0.01044129831608656	0.00974138480793376	0.3068398685674157	-0.384949223659563	-41.58135018905585	-3.29471140858927	1.226822981248726	-6.320900530192971	-687.5804603621386	73.23531677069425	0.8808445773413849	0.7745508734771218	0.1986763880821683	-2.80844579610376	-0.076273213873378	-0.2566806188868889	2.323027347222708	-2.79586757946592	-2.795867579465928	0.8606845825886464	-0.04528026961571126	-1.091166849408155	-0.5212215777817208	4.096289328265687e-08	2.519782607039617e-07	1.787005766094697e-06	1.215619752321243e-06	-3.242240577191475e-07	-1.101846423352772e-07	1.826873584790243e-06
0.59	-0.2108043807928101	-0.009117233122271478	0.723217041217908	1.198773735572258	-0.2264989330260666	-0.0994469886193198	-0.7178147979305876	1.229885570659343	1.229885570659468	-0.1103794187950972	0.1745314909087344	0.3477052054852808	0.1547453448653227	-0.3837946940453758	-0.1520861137808887	-0.6230002642924811	1.978044196216286	-0.0603549848997702	0.2089510492596003	-0.5270921987372217	1.961517280384081	1.96151728038409	-0.341943850633276	-0.0001506558003839314	0.448873357604161	0.09406753678660711	-0.2823718542240682	0.003709857463840582	0.01798847141977652	-0.3591583323258171	0.009571688547123369	0.00990399569033994	0.3124512278613575	-0.1969683464027661	-42.24012436876345	-3.435816979906205	1.359408286945587	-6.044816512603176	-693.2868717248983	73.72344308304091	0.9101937634126905	0.7662422785705907	0.2843553623423032	-2.952083237264093	-0.07002543360044733	-0.3280869587620268	2.323806945401888	-2.946729462699972	-2.946729462697253	0.8229940541434428	0.009945373624869013	-1.124186709362655	-0.534625126546712	4.47820067026233e-08	2.43411065477556e-07	1.644222517407322e-06	1.155863324161779e-06	-3.078401097317556e-07	-9.930439079227737e-08	1.741659346352154e-06
